<?xml version="1.0" encoding="UTF-8"?>
<svg width="177px" height="42px" viewBox="0 0 177 42" version="1.1" xmlns="http://www.w3.org/2000/svg" xmlns:xlink="http://www.w3.org/1999/xlink">
    <title>Group 2</title>
    <defs>
        <path d="M23.3414218,3.72642769 C21.5607765,0.996814734 17.0188982,0 13.1249416,0 C9.23145234,0 4.6896909,0.996697874 2.90881189,3.72596025 C1.61250117,4.55998918 0,6.05930138 0,8.3559485 C0,9.16403454 0.214649612,10.2983933 1.13681332,11.4397637 L1.52837067,14.8683156 L1.52837067,14.9001015 C1.52837067,15.2234528 1.56704733,15.5503098 1.64346586,15.8748297 L3.19847786,29.4894726 C3.26064095,30.6719777 3.88098651,32.7033529 7.11381765,33.977593 C8.78637865,34.6369164 10.92119,35 13.1249416,35 C15.3291606,35 17.4642056,34.6369164 19.1367666,33.977593 C22.3714673,32.702418 22.9905275,30.6694068 23.051639,29.486668 L24.5703113,16.0277993 C24.6708005,15.6582884 24.7216293,15.2802467 24.7216293,14.9001015 L24.7216293,14.6871828 L25.0838579,11.4761072 C26.0299754,10.3243362 26.25,9.17525309 26.25,8.3559485 C26.25,6.05965196 24.6377325,4.56045662 23.3414218,3.72642769" id="path-1"></path>
        <filter x="-19.0%" y="-11.4%" width="138.1%" height="128.6%" filterUnits="objectBoundingBox" id="filter-2">
            <feOffset dx="0" dy="1" in="SourceAlpha" result="shadowOffsetOuter1"></feOffset>
            <feGaussianBlur stdDeviation="1.5" in="shadowOffsetOuter1" result="shadowBlurOuter1"></feGaussianBlur>
            <feColorMatrix values="0 0 0 0 0   0 0 0 0 0   0 0 0 0 0  0 0 0 0.15 0" type="matrix" in="shadowBlurOuter1"></feColorMatrix>
        </filter>
    </defs>
    <g id="Bulma" stroke="none" stroke-width="1" fill="none" fill-rule="evenodd">
        <g id="Patients" transform="translate(-17.000000, -8.000000)">
            <g id="navbar">
                <g id="Group-2" transform="translate(20.000000, 8.000000)">
                    <g id="#6" transform="translate(0.000000, 3.000000)">
                        <g id="Background">
                            <use fill="black" fill-opacity="1" filter="url(#filter-2)" xlink:href="#path-1"></use>
                            <use fill="#FFFFFF" fill-rule="evenodd" xlink:href="#path-1"></use>
                        </g>
                        <path d="M21.4497391,14.9451929 C20.8821486,16.1724742 17.6520384,17.4026734 13.4615968,17.4026734 C9.19137058,17.4026734 5.92055158,16.1252038 5.44615976,14.8751626 L5.00034577,10.9706224 C5.31750125,11.1420799 5.66475093,11.3040834 6.04232808,11.4552322 C8.03356061,12.2521772 10.668319,12.6911505 13.4615968,12.6911505 C16.2547579,12.6911505 18.889633,12.2521772 20.8807488,11.4552322 C21.2479447,11.3082852 21.5863294,11.1509505 21.8963696,10.9847452 L21.4497391,14.9451929 Z M19.8806418,28.8575321 L19.8770258,28.9228937 C19.8770258,29.8489279 17.4363633,31.1405204 13.4615968,31.1405204 C9.4867136,31.1405204 7.04616776,29.8489279 7.04616776,28.9228937 L7.04616776,28.8896293 L6.40147547,23.2428516 C7.9738388,24.3314728 10.7730654,24.9044375 13.4615968,24.9044375 C15.6035336,24.9044375 17.6261434,24.5670081 19.1568647,23.9543596 C19.6847962,23.7431015 20.1386587,23.5035978 20.5140196,23.2416844 L19.8806418,28.8575321 Z M4.97690029,6.46743968 C5.64083887,8.29628137 9.06574482,9.60666529 13.4615968,9.60666529 C17.8573321,9.60666529 21.2821214,8.29628137 21.9461766,6.4675564 C22.6720533,6.96687255 23.0643276,7.50774002 23.0643276,8.03051632 C23.0643276,9.68299833 19.1205884,11.5239786 13.4615968,11.5239786 C7.80248852,11.5239786 3.85874933,9.68299833 3.85874933,8.03051632 C3.85874933,7.50727315 4.25079037,6.9665224 4.97690029,6.46743968 L4.97690029,6.46743968 Z M8.00696574,4.08489164 C9.45463646,3.5055075 11.3917461,3.18640269 13.4615968,3.18640269 C15.5314475,3.18640269 17.4685571,3.5055075 18.9161112,4.08489164 C20.157555,4.58175672 20.8985954,5.22778638 20.8985954,5.81288967 C20.8985954,6.39810967 20.157555,7.04413933 18.9161112,7.54100442 C17.4685571,8.12038856 15.5314475,8.43949336 13.4615968,8.43949336 C11.3917461,8.43949336 9.45463646,8.12038856 8.00696574,7.54100442 C6.7655219,7.04413933 6.02448153,6.39810967 6.02448153,5.81288967 C6.02448153,5.22778638 6.7655219,4.58175672 8.00696574,4.08489164 L8.00696574,4.08489164 Z M13.4615968,2.01923077 C17.8004098,2.01923077 21.1933552,3.29588342 21.9191152,5.08760904 C23.8239144,6.1125027 24.2307692,7.2482777 24.2307692,8.03051632 C24.2307692,8.77622246 23.8639233,9.48247819 23.1687241,10.1112337 L23.1687241,10.1112337 L21.0431175,28.9588426 C21.001009,31.1345678 17.1171082,32.3076923 13.4615968,32.3076923 C9.80643526,32.3076923 5.92311775,31.1344511 5.88007605,28.9593095 L5.88007605,28.9593095 L3.72519177,10.0843888 C3.04912219,9.46228612 2.69230769,8.7656012 2.69230769,8.03051632 C2.69230769,7.24711053 3.0998624,6.1118024 5.00419502,5.0873756 C5.73007166,3.2957667 9.12290046,2.01923077 13.4615968,2.01923077 Z M9.67775468,4.34911243 C8.34724158,4.4652504 7.34927235,4.94783756 7.34927235,5.52565556 C7.34927235,6.07084925 8.23740644,6.53115079 9.45504594,6.67899408 L9.67775468,4.34911243 Z" id="Icon" fill="#00D1B2"></path>
                    </g>
                    <text id="MEOWBASE" font-family="FiraSans-ExtraBold, Fira Sans" font-size="27" font-weight="600" fill="#00D1B2">
                        <tspan x="34.1645" y="31">MEOWBASE</tspan>
                    </text>
                </g>
            </g>
        </g>
    </g>
</svg>